<svg width="53" height="53" viewBox="0 0 53 53" fill="none" xmlns="http://www.w3.org/2000/svg">
<circle cx="26.5" cy="26.5" r="26.5" fill="#E0E0E0"/>
<path d="M16.5 0H7.5C3.3585 0 0 3.3585 0 7.5V16.5C0 20.6415 3.3585 24 7.5 24H16.5C20.6415 24 24 20.6415 24 16.5V7.5C24 3.3585 20.6415 0 16.5 0ZM21.75 16.5C21.75 19.395 19.395 21.75 16.5 21.75H7.5C4.605 21.75 2.25 19.395 2.25 16.5V7.5C2.25 4.605 4.605 2.25 7.5 2.25H16.5C19.395 2.25 21.75 4.605 21.75 7.5V16.5Z" transform="translate(15 15)" fill="black"/>
<path d="M6 0C2.6865 0 0 2.6865 0 6C0 9.3135 2.6865 12 6 12C9.3135 12 12 9.3135 12 6C12 2.6865 9.3135 0 6 0ZM6 9.75C3.933 9.75 2.25 8.067 2.25 6C2.25 3.9315 3.933 2.25 6 2.25C8.067 2.25 9.75 3.9315 9.75 6C9.75 8.067 8.067 9.75 6 9.75Z" transform="translate(21 21)" fill="black"/>
<path d="M0.7995 1.599C1.24105 1.599 1.599 1.24105 1.599 0.7995C1.599 0.357948 1.24105 0 0.7995 0C0.357949 0 0 0.357948 0 0.7995C0 1.24105 0.357949 1.599 0.7995 1.599Z" transform="translate(32.6504 19.7502)" fill="black"/>
</svg>
