<svg width="53" height="53" viewBox="0 0 53 53" fill="none" xmlns="http://www.w3.org/2000/svg">
<circle cx="26.5" cy="26.5" r="26.5" fill="#E0E0E0"/>
<path d="M25 2.72285C24.0703 3.18462 23.0797 3.49069 22.0469 3.63931C23.1094 2.921 23.9203 1.79223 24.3016 0.431692C23.3109 1.10046 22.2172 1.57285 21.0516 1.83646C20.1109 0.702385 18.7703 0 17.3078 0C14.4703 0 12.1859 2.60785 12.1859 5.80485C12.1859 6.26485 12.2203 6.70715 12.3047 7.12823C8.04375 6.89292 4.27344 4.58054 1.74062 1.058C1.29844 1.92669 1.03906 2.921 1.03906 3.99138C1.03906 6.00123 1.95312 7.78285 3.31562 8.81431C2.49219 8.79662 1.68437 8.52592 1 8.09954C1 8.11723 1 8.14023 1 8.16323C1 10.9834 2.77656 13.3258 5.10625 13.8655C4.68906 13.9946 4.23438 14.0565 3.7625 14.0565C3.43438 14.0565 3.10312 14.0353 2.79219 13.9575C3.45625 16.2557 5.34063 17.9453 7.58125 18.0002C5.8375 19.5447 3.62344 20.4753 1.22656 20.4753C0.80625 20.4753 0.403125 20.4541 0 20.3957C2.27031 22.0535 4.96094 23 7.8625 23C17.2937 23 22.45 14.1538 22.45 6.486C22.45 6.22946 22.4422 5.98177 22.4312 5.73585C23.4484 4.91846 24.3031 3.89762 25 2.72285Z" transform="translate(14 15)" fill="black"/>
</svg>
